<svg width="123" height="27" viewBox="0 0 123 27" fill="none" xmlns="http://www.w3.org/2000/svg">
<path d="M13.0641 3.03264C13.3717 2.12894 14.6498 2.12894 14.9574 3.03264L16.9256 8.81507C17.0636 9.22034 17.4442 9.49285 17.8723 9.49285H24.1391C25.119 9.49285 25.5142 10.7561 24.709 11.3146L19.7202 14.7745C19.3534 15.0289 19.1996 15.4957 19.3435 15.9184L21.2677 21.5715C21.5785 22.4847 20.5438 23.2652 19.7511 22.7154L14.5806 19.1295C14.2379 18.8918 13.7836 18.8918 13.4408 19.1295L8.27032 22.7154C7.47766 23.2652 6.44293 22.4847 6.75377 21.5715L8.67797 15.9184C8.82184 15.4957 8.66808 15.0289 8.3012 14.7745L3.31244 11.3146C2.5072 10.7561 2.90239 9.49285 3.88233 9.49285H10.1492C10.5773 9.49285 10.9579 9.22034 11.0958 8.81507L13.0641 3.03264Z" fill="#FFA858"/>
<path d="M36.6232 3.17861C36.9225 2.25729 38.2259 2.25729 38.5253 3.17861L40.3523 8.80186C40.4862 9.21388 40.8702 9.49285 41.3034 9.49285H47.2159C48.1846 9.49285 48.5874 10.7324 47.8037 11.3019L43.0203 14.7773C42.6699 15.0319 42.5232 15.4833 42.6571 15.8953L44.4842 21.5186C44.7835 22.4399 43.729 23.2061 42.9453 22.6366L38.162 19.1613C37.8115 18.9066 37.3369 18.9066 36.9864 19.1613L32.2032 22.6366C31.4195 23.2061 30.365 22.4399 30.6643 21.5186L32.4914 15.8953C32.6253 15.4833 32.4786 15.0319 32.1281 14.7773L27.3447 11.3019C26.561 10.7324 26.9638 9.49285 27.9325 9.49285H33.8451C34.2783 9.49285 34.6622 9.21388 34.7961 8.80185L36.6232 3.17861Z" fill="#FFA858"/>
<path d="M60.191 3.03264C60.4986 2.12894 61.7768 2.12894 62.0844 3.03264L64.0526 8.81507C64.1905 9.22034 64.5712 9.49285 64.9993 9.49285H71.2661C72.246 9.49285 72.6412 10.7561 71.836 11.3146L66.8472 14.7745C66.4803 15.0289 66.3266 15.4957 66.4705 15.9184L68.3947 21.5715C68.7055 22.4847 67.6708 23.2652 66.8781 22.7154L61.7076 19.1295C61.3648 18.8918 60.9106 18.8918 60.5678 19.1295L55.3973 22.7154C54.6046 23.2652 53.5699 22.4847 53.8808 21.5715L55.805 15.9184C55.9488 15.4957 55.7951 15.0289 55.4282 14.7745L50.4394 11.3146C49.6342 10.7561 50.0294 9.49285 51.0093 9.49285H57.2761C57.7042 9.49285 58.0849 9.22034 58.2228 8.81507L60.191 3.03264Z" fill="#FFA858"/>
<path d="M83.7501 3.17861C84.0495 2.25729 85.3529 2.25729 85.6522 3.17861L87.4793 8.80186C87.6132 9.21388 87.9971 9.49285 88.4303 9.49285H94.3429C95.3116 9.49285 95.7144 10.7324 94.9307 11.3019L90.1473 14.7773C89.7968 15.0319 89.6502 15.4833 89.784 15.8953L91.6111 21.5186C91.9104 22.4399 90.8559 23.2061 90.0722 22.6366L85.289 19.1613C84.9385 18.9066 84.4639 18.9066 84.1134 19.1613L79.3301 22.6366C78.5464 23.2061 77.4919 22.4399 77.7913 21.5186L79.6183 15.8953C79.7522 15.4833 79.6055 15.0319 79.2551 14.7773L74.4717 11.3019C73.688 10.7324 74.0908 9.49285 75.0595 9.49285H80.972C81.4052 9.49285 81.7892 9.21388 81.9231 8.80185L83.7501 3.17861Z" fill="#FFA858"/>
<path d="M107.318 3.03264C107.626 2.12894 108.904 2.12894 109.211 3.03264L111.18 8.81507C111.317 9.22034 111.698 9.49285 112.126 9.49285H118.393C119.373 9.49285 119.768 10.7561 118.963 11.3146L113.974 14.7745C113.607 15.0289 113.454 15.4957 113.597 15.9184L115.522 21.5715C115.832 22.4847 114.798 23.2652 114.005 22.7154L108.835 19.1295C108.492 18.8918 108.038 18.8918 107.695 19.1295L102.524 22.7154C101.732 23.2652 100.697 22.4847 101.008 21.5715L102.932 15.9184C103.076 15.4957 102.922 15.0289 102.555 14.7745L97.5664 11.3146C96.7611 10.7561 97.1563 9.49285 98.1363 9.49285H104.403C104.831 9.49285 105.212 9.22034 105.35 8.81507L107.318 3.03264Z" fill="#FFA858"/>
</svg>
